<svg width="75" height="75" viewBox="0 0 75 75" fill="none" xmlns="http://www.w3.org/2000/svg">
<path d="M55.6181 18.0563C50.7136 13.8284 44.2013 11.5 37.2803 11.5C30.3593 11.5 23.8469 13.8284 18.9425 18.0563C14.0014 22.3158 11.2803 27.9899 11.2803 34.0333C11.2803 40.6794 14.6291 46.933 20.474 51.227C20.7931 51.8896 21.1437 52.5417 21.526 53.1832L19.5593 54.1665C19.4154 54.2385 19.2943 54.3492 19.2097 54.4861C19.1251 54.623 19.0803 54.7807 19.0803 54.9417C19.0803 55.1026 19.1251 55.2604 19.2097 55.3973C19.2943 55.5342 19.4154 55.6448 19.5593 55.7168L21.9924 56.9334C22.4949 57.1859 22.9027 57.5936 23.1552 58.0961L24.3718 60.5293C24.4438 60.6732 24.5544 60.7943 24.6913 60.8789C24.8283 60.9635 24.986 61.0083 25.1469 61.0083C25.3079 61.0083 25.4656 60.9635 25.6025 60.8789C25.7394 60.7943 25.8501 60.6732 25.9221 60.5293L26.5843 59.2048C29.8594 61.9824 33.6186 63.5 37.2803 63.5H49.4136C49.5434 63.5 49.6714 63.4709 49.7884 63.4147C49.9054 63.3586 50.0083 63.277 50.0895 63.1758L57.7127 53.6774C58.5066 52.8696 58.9501 51.7814 58.9469 50.6487V46.495C61.7822 42.7991 63.2803 38.4967 63.2803 34.0333C63.2803 27.9899 60.5592 22.3158 55.6181 18.0563ZM13.0136 34.0333C13.0136 22.5642 23.8996 13.2333 37.2803 13.2333C40.211 13.2281 43.1239 13.6874 45.9109 14.594C45.6869 16.2423 44.4368 18.7604 42.6585 21.0875C40.7018 23.6468 38.5405 25.3667 37.2803 25.3667C32.0232 25.3667 27.26 26.8659 23.8686 29.5881C20.169 32.5574 18.2136 36.7917 18.2136 41.8333C18.2268 43.8762 18.5429 45.9058 19.1516 47.8559C15.2179 44.0698 13.0136 39.1734 13.0136 34.0333ZM53.0807 38.492C52.7443 38.8229 52.4768 39.2171 52.2937 39.6519C52.1105 40.0867 52.0153 40.5535 52.0136 41.0253V49.336L50.4798 51.3076C50.2615 50.7811 49.9167 50.3166 49.476 49.9552C49.0354 49.5937 48.5123 49.3465 47.9533 49.2354C47.3943 49.1243 46.8165 49.1528 46.2711 49.3182C45.7257 49.4837 45.2295 49.7811 44.8265 50.1841C44.7892 50.2212 44.7555 50.2618 44.7257 50.3051L36.8318 61.7569C33.6208 61.6333 30.3209 60.1892 27.4293 57.6448C27.6649 57.3472 27.9626 57.1044 28.3015 56.9334L30.7346 55.7168C30.8785 55.6448 30.9995 55.5342 31.0841 55.3973C31.1687 55.2604 31.2135 55.1026 31.2135 54.9417C31.2135 54.7807 31.1687 54.623 31.0841 54.4861C30.9995 54.3492 30.8785 54.2385 30.7346 54.1665L28.3015 52.95C27.799 52.6974 27.3912 52.2897 27.1386 51.7872L25.9221 49.354C25.8501 49.2101 25.7394 49.0891 25.6025 49.0045C25.4656 48.9199 25.3079 48.8751 25.1469 48.8751C24.986 48.8751 24.8283 48.9199 24.6913 49.0045C24.5544 49.0891 24.4438 49.2101 24.3718 49.354L23.1552 51.7871C23.0909 51.9154 23.0159 52.0381 22.9311 52.1539C21.0015 48.8693 19.9469 45.2408 19.9469 41.8333C19.9469 37.3357 21.6781 33.5687 24.9535 30.9399C28.0384 28.4637 32.4161 27.1 37.2803 27.1C41.5723 27.1 45.4246 28.131 48.4203 30.0814C51.2872 31.9481 53.2383 34.6037 54.1003 37.7948C53.7217 37.9646 53.3764 38.2008 53.0807 38.492ZM25.1469 58.2037L24.7056 57.3209C24.2847 56.4834 23.6051 55.8039 22.7676 55.383L21.8849 54.9417L22.7676 54.5003C23.6051 54.0794 24.2847 53.3998 24.7056 52.5623L25.1469 51.6796L25.5883 52.5625C26.0092 53.3999 26.6888 54.0794 27.5263 54.5003L28.409 54.9417L27.5263 55.383C26.6888 55.8039 26.0092 56.4835 25.5883 57.321L25.1469 58.2037ZM57.2136 50.6487C57.2146 50.9903 57.1478 51.3287 57.017 51.6442C56.8863 51.9598 56.6943 52.2463 56.4521 52.4872C56.4298 52.5094 56.4087 52.5329 56.389 52.5576L48.9979 61.7667H38.9303L46.1034 51.3609C46.4367 51.0523 46.8779 50.8869 47.332 50.9003C47.7861 50.9137 48.2168 51.1048 48.5314 51.4325C48.846 51.7603 49.0194 52.1984 49.0142 52.6527C49.009 53.107 48.8256 53.541 48.5036 53.8615C48.4715 53.8936 48.442 53.9282 48.4153 53.9649L46.1127 57.1342C45.9828 57.3204 45.9312 57.5501 45.9689 57.7739C46.0066 57.9978 46.1306 58.1979 46.3143 58.3313C46.4979 58.4647 46.7266 58.5207 46.9511 58.4873C47.1757 58.4538 47.3781 58.3337 47.515 58.1526L49.7803 55.0346C49.9502 54.8573 50.1008 54.6623 50.2294 54.4531L53.5645 50.1649V50.1638C53.6828 50.0123 53.747 49.8256 53.7469 49.6333V41.0253C53.7481 40.7838 53.7971 40.5449 53.8911 40.3225C53.9851 40.1001 54.1222 39.8984 54.2946 39.7293C54.4543 39.5693 54.6446 39.4429 54.8541 39.3578C55.0635 39.2726 55.288 39.2303 55.5141 39.2333C55.9672 39.2443 56.3982 39.4315 56.7156 39.7551C57.0329 40.0788 57.2116 40.5134 57.2136 40.9667V50.6487ZM55.8202 37.5178C54.8719 33.8313 52.6517 30.7686 49.3662 28.6289C46.9278 27.0414 43.9905 26.011 40.7408 25.5871C42.1662 24.4633 43.3897 22.9844 44.0354 22.1395C46.1904 19.3205 47.2322 16.8708 47.5608 15.1954C55.8161 18.5183 61.5469 25.7124 61.5469 34.0333C61.5396 37.3346 60.6413 40.5728 58.9469 43.4061V40.9667C58.9425 40.1075 58.6208 39.2802 58.0438 38.6437C57.4667 38.0072 56.6748 37.6062 55.8202 37.5178Z" fill="#617C5F"/>
<path d="M31.2137 41.8333C31.4436 41.8333 31.664 41.742 31.8265 41.5795C31.9891 41.4169 32.0804 41.1965 32.0804 40.9666C32.0804 40.2771 31.8064 39.6158 31.3188 39.1282C30.8313 38.6406 30.1699 38.3666 29.4804 38.3666C28.7908 38.3666 28.1295 38.6406 27.6419 39.1282C27.1543 39.6158 26.8804 40.2771 26.8804 40.9666C26.8804 41.1965 26.9717 41.4169 27.1342 41.5795C27.2967 41.742 27.5172 41.8333 27.747 41.8333C27.9769 41.8333 28.1973 41.742 28.3599 41.5795C28.5224 41.4169 28.6137 41.1965 28.6137 40.9666C28.6137 40.7368 28.705 40.5163 28.8675 40.3538C29.0301 40.1913 29.2505 40.1 29.4804 40.1C29.7102 40.1 29.9307 40.1913 30.0932 40.3538C30.2557 40.5163 30.347 40.7368 30.347 40.9666C30.347 41.1965 30.4383 41.4169 30.6009 41.5795C30.7634 41.742 30.9839 41.8333 31.2137 41.8333Z" fill="#617C5F"/>
<path d="M45.0802 38.3666C44.3909 38.3674 43.73 38.6416 43.2426 39.129C42.7552 39.6164 42.481 40.2773 42.4802 40.9666C42.4802 41.1965 42.5715 41.4169 42.7341 41.5795C42.8966 41.742 43.117 41.8333 43.3469 41.8333C43.5767 41.8333 43.7972 41.742 43.9597 41.5795C44.1222 41.4169 44.2136 41.1965 44.2136 40.9666C44.2136 40.7368 44.3049 40.5163 44.4674 40.3538C44.6299 40.1913 44.8504 40.1 45.0802 40.1C45.3101 40.1 45.5305 40.1913 45.6931 40.3538C45.8556 40.5163 45.9469 40.7368 45.9469 40.9666C45.9469 41.1965 46.0382 41.4169 46.2007 41.5795C46.3633 41.742 46.5837 41.8333 46.8136 41.8333C47.0434 41.8333 47.2639 41.742 47.4264 41.5795C47.5889 41.4169 47.6802 41.1965 47.6802 40.9666C47.6795 40.2773 47.4053 39.6164 46.9178 39.129C46.4304 38.6416 45.7695 38.3674 45.0802 38.3666Z" fill="#617C5F"/>
<path d="M43.6943 47.106C43.4838 47.0139 43.2452 47.0092 43.0311 47.0929C42.8171 47.1766 42.6451 47.342 42.5529 47.5526C42.54 47.582 41.2179 50.5 37.2802 50.5C33.3946 50.5 32.0662 47.6815 32.0058 47.5487C31.9123 47.3397 31.7398 47.1763 31.5261 47.094C31.3125 47.0118 31.0749 47.0174 30.8654 47.1097C30.6559 47.202 30.4914 47.3734 30.4079 47.5866C30.3244 47.7998 30.3286 48.0373 30.4196 48.2474C30.4908 48.4101 32.2216 52.2333 37.2802 52.2333C42.3389 52.2333 44.0697 48.4101 44.1409 48.2474C44.233 48.0368 44.2377 47.7983 44.154 47.5842C44.0702 47.3702 43.9049 47.1982 43.6943 47.106Z" fill="#617C5F"/>
<path d="M35.5468 45.3H39.0135C39.2434 45.3 39.4638 45.2087 39.6263 45.0461C39.7889 44.8836 39.8802 44.6632 39.8802 44.4333C39.8802 44.2035 39.7889 43.983 39.6263 43.8205C39.4638 43.658 39.2434 43.5666 39.0135 43.5666H36.4135V40.9666C36.4135 40.7368 36.3222 40.5163 36.1597 40.3538C35.9971 40.1913 35.7767 40.1 35.5468 40.1C35.317 40.1 35.0965 40.1913 34.934 40.3538C34.7715 40.5163 34.6802 40.7368 34.6802 40.9666V44.4333C34.6802 44.6632 34.7715 44.8836 34.934 45.0461C35.0965 45.2087 35.317 45.3 35.5468 45.3Z" fill="#617C5F"/>
</svg>
