<svg width="52" height="74" viewBox="0 0 52 74" fill="none" xmlns="http://www.w3.org/2000/svg">
<path fill-rule="evenodd" clip-rule="evenodd" d="M9.11416 31.2578C5.17408 31.2578 1.96974 34.4622 1.96974 38.4019L1.96991 65.2402C1.96991 69.18 5.17408 72.3843 9.11382 72.3843H26.0111C29.9506 72.3843 33.155 69.18 33.155 65.2402L33.1553 38.4019C33.1553 34.4622 29.9506 31.2578 26.0109 31.2578H9.11416ZM26.0111 74.0001H9.11416C4.28384 74.0001 0.354004 70.0702 0.354004 65.2402V38.4019C0.354004 33.5718 4.28384 29.6421 9.11382 29.6421H26.0111C30.8409 29.6421 34.7707 33.5718 34.7707 38.4019V65.2402C34.7707 70.0702 30.8409 74.0001 26.0111 74.0001Z" fill="#899F87"/>
<path fill-rule="evenodd" clip-rule="evenodd" d="M9.8833 45.9403C8.80785 45.9403 7.93246 46.8155 7.93246 47.8908L7.9328 55.752C7.9328 56.8273 8.80768 57.7025 9.88313 57.7025H25.242C26.3174 57.7025 27.1923 56.8273 27.1923 55.752L27.1926 47.8908C27.1926 46.8153 26.3172 45.9403 25.2418 45.9403H9.8833ZM25.242 59.3181H9.8833C7.91761 59.3181 6.31689 57.7177 6.31689 55.752L6.31707 47.8908C6.31707 45.9251 7.91744 44.3247 9.88313 44.3247H25.242C27.2076 44.3247 28.808 45.9251 28.808 47.8908L28.8084 55.752C28.8084 57.7177 27.2075 59.3181 25.242 59.3181Z" fill="#899F87"/>
<path fill-rule="evenodd" clip-rule="evenodd" d="M24.3667 31.2579C23.9207 31.2579 23.5586 30.896 23.5586 30.4499V15.8301H11.5644V30.4499C11.5644 30.896 11.204 31.2579 10.7564 31.2579C10.3107 31.2579 9.94849 30.896 9.94849 30.4499L9.94866 15.0223C9.94866 14.5763 10.3104 14.2144 10.7564 14.2144H24.3667C24.8143 14.2144 25.1743 14.5763 25.1743 15.0223L25.1745 30.4499C25.1745 30.896 24.8141 31.2579 24.3667 31.2579Z" fill="#899F87"/>
<path fill-rule="evenodd" clip-rule="evenodd" d="M24.3683 20.9736H10.7568C10.3107 20.9736 9.94849 20.6118 9.94849 20.1657C9.94866 19.7181 10.3104 19.3579 10.7564 19.3579H24.3683C24.8143 19.3579 25.176 19.7181 25.176 20.1657C25.176 20.6118 24.8141 20.9736 24.3683 20.9736Z" fill="#899F87"/>
<path fill-rule="evenodd" clip-rule="evenodd" d="M24.3683 26.1146H10.7568C10.3107 26.1146 9.94849 25.7529 9.94849 25.3068C9.94866 24.8608 10.3104 24.499 10.7564 24.499H24.3683C24.8143 24.499 25.176 24.8608 25.176 25.3068C25.176 25.7529 24.8141 26.1146 24.3683 26.1146Z" fill="#899F87"/>
<path fill-rule="evenodd" clip-rule="evenodd" d="M33.559 17.6664C33.2023 17.6681 32.8757 17.4291 32.7781 17.0689L29.7927 5.92431C29.4191 4.52912 29.4928 3.23653 30.0061 2.18652C30.5061 1.16654 31.3964 0.439503 32.5138 0.140084C33.6331 -0.159677 34.7673 0.0255394 35.7098 0.658349C36.6792 1.3096 37.3894 2.39341 37.763 3.7886L40.7487 14.9332C40.865 15.3641 40.6089 15.8067 40.178 15.9211C39.7475 16.0373 39.3045 15.7814 39.1884 15.3506L36.2028 4.20598C35.932 3.19283 35.4489 2.43046 34.8076 1.99976C34.2508 1.62438 33.6027 1.52178 32.9329 1.70188C32.2632 1.88027 31.7531 2.29423 31.457 2.89666C31.1188 3.59007 31.0816 4.49208 31.3542 5.50523L34.3399 16.6498C34.4546 17.0807 34.1985 17.5233 33.7676 17.6394C33.6987 17.6578 33.6278 17.6664 33.559 17.6664Z" fill="#899F87"/>
<path fill-rule="evenodd" clip-rule="evenodd" d="M33.2493 16.9426H33.2512H33.2493ZM41.2805 15.7343C41.0214 15.7343 40.7537 15.768 40.4878 15.8386L33.4584 17.7219C32.189 18.0634 31.3307 19.1524 31.5849 20.1017L32.9014 25.0158L44.6161 21.8755L43.3003 16.9612C43.0999 16.2123 42.2532 15.7343 41.2805 15.7343ZM32.3307 26.8117C32.189 26.8117 32.0494 26.7763 31.9265 26.7039C31.7399 26.5962 31.605 26.4211 31.5495 26.2142L30.0231 20.5191C29.5354 18.693 30.8881 16.7391 33.0407 16.1618L40.0687 14.2785C42.223 13.7012 44.372 14.7178 44.8618 16.5438L46.3867 22.2374C46.5026 22.6681 46.2469 23.1124 45.816 23.2268L32.5393 26.7847C32.4703 26.8031 32.3993 26.8117 32.3307 26.8117Z" fill="#899F87"/>
<path fill-rule="evenodd" clip-rule="evenodd" d="M47.4167 56.5632C47.1674 56.5632 46.9284 56.4487 46.7736 56.245L42.5947 50.7536C42.536 50.6745 42.4921 50.5869 42.4634 50.4944L34.9827 25.3155C34.8549 24.8881 35.0988 24.4388 35.5263 24.3124C35.9556 24.1846 36.4049 24.4287 36.531 24.8561L43.9701 49.8918L46.8646 53.697L47.4689 48.9545L41.3933 23.5535C41.2905 23.1192 41.558 22.6834 41.9906 22.5791C42.425 22.4763 42.8607 22.744 42.965 23.1783L49.0746 48.7221C49.098 48.8165 49.1027 48.9157 49.091 49.0117L48.2176 55.858C48.1755 56.1829 47.9416 56.4521 47.6251 56.5362C47.5563 56.5547 47.4855 56.5632 47.4167 56.5632Z" fill="#899F87"/>
<path fill-rule="evenodd" clip-rule="evenodd" d="M47.4083 63.729C47.3644 63.8164 47.3188 63.9057 47.2734 63.9965C46.4151 65.7013 44.6293 69.249 44.8111 70.2251H44.8115C45.0455 71.4772 46.1408 72.3843 47.4165 72.3843C48.7075 72.3843 49.8045 71.4639 50.0266 70.1948C50.1734 69.3517 48.4313 65.809 47.5949 64.1059C47.531 63.978 47.4685 63.8517 47.4083 63.729ZM47.4166 74.0001C45.3635 74.0001 43.6012 72.5374 43.2241 70.5229H43.2244C42.9615 69.1211 44.1935 66.5226 45.8311 63.2694C46.1879 62.5608 46.4958 61.9466 46.6759 61.5376C46.8055 61.2449 47.095 61.0547 47.4165 61.0547C47.7362 61.0547 48.0272 61.2449 48.1553 61.5376C48.3572 61.9972 48.6753 62.6435 49.0438 63.3939C50.6898 66.7414 51.8391 69.2087 51.6187 70.4726C51.2604 72.5173 49.4931 74.0001 47.4166 74.0001Z" fill="#899F87"/>
</svg>
