<svg width="348" height="436" viewBox="0 0 348 436" fill="none" xmlns="http://www.w3.org/2000/svg">
<path fill-rule="evenodd" clip-rule="evenodd" d="M238.414 70.8209C231.096 70.8209 145.582 59.2672 134.678 174.806C123.774 290.344 246.951 362.298 314.638 289.124C382.325 215.95 342.079 78.7472 238.416 70.8209H238.414Z" fill="#E4ECE0"/>
<path fill-rule="evenodd" clip-rule="evenodd" d="M56.3597 434.619C56.2552 435.031 55.8359 435.28 55.4235 435.176C55.011 435.071 54.7622 434.652 54.8666 434.239C54.8962 434.121 65.1093 393.133 90.6673 365.389C108.765 345.742 107.747 333.365 106.776 321.554C106.392 316.878 106.014 312.289 106.788 307.335C107.458 303.047 109.35 298.66 111.965 294.552C115.628 288.795 120.725 283.566 125.864 279.925C131.081 276.229 136.384 274.155 140.36 274.776C140.837 274.851 141.294 274.962 141.731 275.115C140.633 271.252 139.302 267.29 137.694 263.282C133.239 252.182 131.287 246.058 131.2 241.803C131.109 237.371 132.948 235.029 136.062 231.491C137.431 229.933 140.282 227.396 143.934 224.14C156.429 213.01 178.449 193.395 181.564 177.201C183.438 167.459 183.196 157.072 181.552 146.904C179.646 135.121 175.856 123.631 171.288 113.769C170.408 111.869 169.546 110.009 168.702 108.182C167.489 107.995 166.249 107.736 164.987 107.393C157.461 105.352 160.205 99.077 161.957 96.1796C158.928 96.7608 152.294 98.5567 145.892 103.779C141.362 107.472 137.602 109.532 134.558 109.977C131.299 110.454 128.863 109.167 127.195 106.137C125.438 102.94 123.698 98.7603 123.468 94.6987C123.292 91.5942 123.992 88.5663 126.21 86.0848C126.854 85.3661 127.69 84.6213 128.69 83.9131C129.548 83.3057 130.53 82.7245 131.616 82.2094C131.351 81.9815 131.092 81.7518 130.838 81.5203C126.407 77.4814 123.553 73.0143 122.382 69.5792C122.074 68.6778 121.991 67.6981 122.107 66.687C122.372 64.3569 123.699 61.8163 125.756 59.5993C127.784 57.4136 130.533 55.5238 133.681 54.4518C135.996 53.6635 138.526 53.3137 141.141 53.613C143.139 53.841 144.912 54.1751 146.494 54.6415C146.327 52.6873 146.388 50.8636 146.654 49.1686C147.496 43.7793 150.383 39.7125 154.568 36.9473C156.288 35.811 158.426 34.9548 160.744 34.4102C164.36 33.5592 168.438 33.46 172.043 34.2257C175.726 35.007 178.938 36.695 180.734 39.4132C181.305 40.278 181.731 41.2421 181.982 42.3088C182.194 43.2103 182.335 44.0873 182.41 44.9487C183.99 44.7503 185.566 44.8077 187.099 45.1297C188.33 45.3872 189.546 45.73 190.717 46.1581C193.978 47.3484 196.9 49.2017 198.816 51.7284C200.767 54.3004 201.673 57.5441 200.852 61.4595C200.692 62.22 200.467 63.0065 200.172 63.8175C198.597 68.1366 195.163 72.1825 191.093 75.7238C190.233 76.4721 189.344 77.1977 188.438 77.899C189.856 79.1641 191.027 80.7494 191.887 82.4183C193.037 84.6509 193.643 87.0593 193.556 89.0797C193.42 92.2172 192.511 95.4261 191.184 98.2174C189.758 101.212 187.832 103.753 185.836 105.23C183.751 106.774 180.443 108.002 176.42 108.41C174.584 108.596 172.595 108.611 170.502 108.41L172.685 113.129C177.306 123.102 181.139 134.73 183.069 146.666C184.74 157.001 184.983 167.567 183.076 177.491C179.864 194.201 157.595 214.035 144.959 225.292C141.348 228.51 138.531 231.018 137.219 232.511C134.351 235.77 132.656 237.916 132.734 241.775C132.818 245.813 134.739 251.79 139.121 262.713C140.945 267.257 142.417 271.745 143.598 276.097C148.732 279.68 152.472 288.017 155.461 294.686C157.609 299.474 159.349 303.352 160.563 303.569C161.472 303.731 162.759 303.632 164.578 303.491C169.875 303.08 179.5 302.334 198.257 306.569C223.412 312.249 246.198 309.552 246.264 309.545C246.687 309.496 247.068 309.801 247.116 310.222C247.153 310.544 246.986 310.841 246.718 310.986C245.909 311.482 229.398 321.411 205.159 321.411C195.082 321.411 187.211 320.052 180.762 318.938C171.61 317.358 165.398 316.286 159.944 320.435C154.922 324.255 151.386 326.004 149.108 325.41C146.654 324.772 145.763 321.761 146.205 316.095C146.677 310.041 146.691 300.553 144.888 289.368C144.256 285.447 143.402 281.317 142.264 277.052C141.63 276.666 140.912 276.417 140.123 276.294C136.556 275.737 131.654 277.701 126.746 281.178C121.761 284.711 116.815 289.785 113.257 295.376C110.749 299.316 108.939 303.503 108.304 307.57C107.561 312.327 107.932 316.838 108.309 321.434C109.308 333.57 110.354 346.287 91.7984 366.431C66.5101 393.883 56.3892 434.502 56.3597 434.62V434.619ZM154.057 295.307C151.464 289.522 148.29 282.449 144.253 278.613C145.156 282.238 145.861 285.757 146.404 289.124C148.231 300.461 148.217 310.074 147.738 316.208C147.364 321.011 147.9 323.506 149.492 323.921C151.259 324.38 154.384 322.732 159.015 319.21C165.004 314.654 171.481 315.771 181.019 317.417C187.404 318.519 195.198 319.866 205.157 319.866C223.177 319.866 236.809 314.306 242.721 311.388C235.203 311.896 217.253 312.428 197.92 308.062C179.396 303.879 169.912 304.615 164.691 305.02C162.759 305.17 161.39 305.276 160.297 305.081C158.279 304.721 156.389 300.508 154.057 295.307ZM167.917 106.485C166.369 103.13 164.874 99.8862 163.422 96.7278C161.978 99.037 159.471 104.301 165.387 105.905C166.242 106.137 167.086 106.33 167.916 106.485H167.917ZM160.891 91.1975L159.679 88.5472C156.116 80.7303 152.879 73.5468 149.799 66.5826C148.149 62.8534 147.14 59.4305 146.685 56.3138C145.041 55.7691 143.151 55.3915 140.971 55.1427C138.59 54.8712 136.284 55.1897 134.172 55.9101C131.278 56.8968 128.746 58.637 126.88 60.6486C125.043 62.6289 123.863 64.8546 123.635 66.8558C123.545 67.6493 123.605 68.4046 123.839 69.0867C124.938 72.3113 127.644 76.5312 131.873 80.384C132.299 80.7738 132.741 81.1584 133.199 81.5377C135.411 80.7024 137.962 80.163 140.732 80.1821C145.657 80.2169 151.267 82.0076 156.878 87.0263C158.218 88.2252 159.559 89.6104 160.891 91.201V91.1975ZM161.077 87.9085L161.712 89.3007C160.819 84.6631 159.448 77.9669 157.847 71.5578C156.453 65.9823 154.812 62.1504 152.24 59.5958C151.142 58.5047 149.863 57.6381 148.347 56.9559C148.835 59.7019 149.767 62.7037 151.21 65.9631C154.382 73.1361 157.607 80.297 161.078 87.9103L161.077 87.9085ZM164.439 95.2556C166.118 98.9134 167.883 102.742 169.745 106.772C172.068 107.068 174.266 107.078 176.267 106.877C180.003 106.499 183.038 105.385 184.919 103.993C186.711 102.665 188.467 100.332 189.79 97.5526C191.039 94.9284 191.892 91.9266 192.017 89.0101C192.094 87.2525 191.549 85.1225 190.517 83.1196C189.689 81.5116 188.554 80.0011 187.185 78.8404C182.464 82.3243 177.429 85.1347 173.679 86.948C170.578 88.4463 168.398 89.9689 166.913 91.3106C166.482 91.7004 166.109 92.0641 165.793 92.4C165.566 92.8837 165.366 93.3257 165.191 93.7138C164.895 94.3646 164.658 94.8849 164.44 95.2521L164.439 95.2556ZM148.17 49.4018C147.893 51.1698 147.857 53.0962 148.09 55.181C150.164 55.9814 151.875 57.0673 153.324 58.5064C156.122 61.2872 157.88 65.3401 159.34 71.1854C160.478 75.7394 161.5 80.4362 162.318 84.4456C162.344 78.6734 162.796 71.3733 164.44 64.5988C166.097 57.7703 169.283 52.6316 173.105 49.3131C175.515 47.2196 178.177 45.8466 180.878 45.2219C180.816 44.3831 180.685 43.5304 180.48 42.6586C180.271 41.7729 179.919 40.9759 179.448 40.2624C177.896 37.9131 175.033 36.4357 171.721 35.7327C168.335 35.014 164.5 35.1097 161.091 35.9119C158.945 36.4166 156.977 37.1997 155.414 38.2316C151.581 40.7636 148.937 44.4823 148.168 49.4053L148.17 49.4018ZM182.472 46.4905C182.451 52.9553 178.748 58.6996 173.634 66.6314C172.694 68.0879 171.708 69.6192 170.733 71.168C165.612 79.3068 164.489 87.4961 164.291 91.8553C164.336 91.7978 164.383 91.7404 164.432 91.6812C166.48 87.2942 170.5 79.5748 176.801 76.3276C178.614 75.3932 180.36 75.0312 181.997 75.1025C183.911 75.1861 185.66 75.863 187.19 76.9141C188.178 76.1571 189.148 75.3723 190.082 74.5596C193.98 71.1697 197.253 67.3292 198.727 63.2919C198.997 62.5506 199.202 61.8354 199.347 61.1446C200.067 57.7112 199.284 54.8834 197.593 52.6525C195.868 50.378 193.195 48.6953 190.192 47.599C189.09 47.197 187.943 46.8733 186.784 46.6314C185.38 46.3374 183.929 46.2921 182.472 46.4888V46.4905ZM172.339 65.8013C177.21 58.2454 180.756 52.7465 180.915 46.795C178.56 47.3954 176.232 48.6292 174.111 50.4738C170.516 53.5956 167.512 58.4612 165.934 64.959C164.376 71.3768 163.91 78.2871 163.858 83.8643C164.792 79.808 166.463 75.0677 169.431 70.3501C170.469 68.7022 171.427 67.216 172.339 65.8013ZM173.011 85.5662C176.59 83.8365 181.36 81.181 185.876 77.8938C184.684 77.1629 183.355 76.7018 181.928 76.6409C180.548 76.5817 179.063 76.8949 177.502 77.6989C173.079 79.9768 169.804 84.7466 167.615 88.7664C169.022 87.7276 170.797 86.6365 173.009 85.568L173.011 85.5662ZM160.266 94.9806C157.128 94.02 151.695 92.2799 144.333 89.633C139.894 88.0373 136.084 85.7977 132.929 83.2988C131.662 83.8435 130.535 84.4873 129.574 85.1678C128.675 85.8047 127.926 86.4711 127.354 87.1098C125.447 89.2415 124.848 91.8866 125.003 94.6152C125.217 98.4001 126.872 102.356 128.544 105.397C129.868 107.804 131.783 108.829 134.335 108.455C137.102 108.051 140.616 106.1 144.923 102.587C150.707 97.8693 156.704 95.8333 160.266 94.9789V94.9806ZM144.85 88.1887C152.271 90.8581 157.713 92.5966 160.809 93.5415C159.168 91.4272 157.509 89.6504 155.854 88.1713C150.564 83.4397 145.314 81.75 140.725 81.717C138.515 81.7013 136.458 82.0685 134.622 82.6636C137.509 84.8389 140.925 86.7774 144.85 88.1887Z" fill="#899F87"/>
<path fill-rule="evenodd" clip-rule="evenodd" d="M148.114 55.5064C148.242 55.9102 148.019 56.3417 147.615 56.4705C147.211 56.5975 146.78 56.3748 146.651 55.9711C146.646 55.9537 144.648 49.9048 145.509 41.3274C145.241 40.4017 143.562 34.7757 140.35 27.4269C140.303 27.319 140.27 27.2424 140.249 27.1902C138.503 23.0155 138.686 18.465 140.922 14.2555C143.122 10.1121 147.319 6.30806 153.629 3.54987C153.855 3.45068 154.052 3.36714 154.221 3.29579C155.884 2.60146 157.539 2.04462 159.165 1.61653C164.491 0.213948 169.491 0.201759 173.439 1.1954C177.508 2.22037 180.499 4.32773 181.667 7.11724C181.789 7.40959 181.893 7.71412 181.975 8.02561C182.457 9.85628 182.923 11.4416 183.317 12.7833C184.427 16.5647 185.034 18.6303 183.682 19.3072C182.862 19.7179 182.043 19.0497 180.779 18.0177C178.952 16.5264 175.945 14.0693 171.367 13.2374C171.273 13.3836 171.182 13.535 171.095 13.6916C168.875 17.6697 166.945 18.7051 163.713 20.4366C162.043 21.331 160.005 22.4239 157.337 24.2824C150.227 29.2349 147.262 40.5565 147.053 41.3901C146.2 49.6995 148.113 55.489 148.118 55.5064H148.114ZM145.518 36.3766C145.436 35.2159 145.318 34.0152 145.198 32.7971C144.474 25.457 143.689 17.4992 150.177 12.571C154.607 9.20371 158.583 6.53776 162.28 4.9803C166.082 3.37759 169.588 2.93907 172.978 4.09281C176.699 5.35966 178.829 6.44727 179.977 7.15552C178.844 5.09863 176.37 3.52028 173.065 2.68847C169.348 1.75225 164.618 1.7714 159.554 3.10438C157.999 3.51332 156.412 4.04756 154.809 4.71753C154.586 4.80976 154.397 4.89155 154.242 4.95941C148.276 7.5662 144.328 11.1231 142.283 14.9776C140.271 18.766 140.104 22.8537 141.671 26.6003L141.761 26.8126C143.404 30.5714 144.651 33.8899 145.52 36.3784L145.518 36.3766ZM146.728 32.6474C146.855 33.9369 146.98 35.2055 147.063 36.4375C148.684 32.282 151.682 26.3428 156.453 23.019C159.161 21.1327 161.265 20.0068 162.986 19.0827C165.969 17.4835 167.747 16.5299 169.748 12.9451C169.935 12.611 170.133 12.2995 170.34 12.0054C170.363 11.9671 170.387 11.9323 170.417 11.8993C172.583 8.9044 175.724 8.00646 177.969 7.78024C176.81 7.19032 175.066 6.42987 172.486 5.55108C169.486 4.52959 166.331 4.94027 162.876 6.39681C159.316 7.89684 155.441 10.5002 151.104 13.7943C145.304 18.2005 146.045 25.7163 146.729 32.6474H146.728ZM180.727 9.32378C180.642 9.33596 180.553 9.33424 180.468 9.31683C179.993 9.25245 175.5 8.73909 172.433 11.8836C176.944 12.9051 179.906 15.3239 181.745 16.8257C182.544 17.4783 182.925 17.969 182.993 17.9342C183.195 17.8333 182.716 16.201 181.839 13.2166C181.509 12.0889 181.127 10.7925 180.727 9.32204V9.32378Z" fill="#899F87"/>
<path fill-rule="evenodd" clip-rule="evenodd" d="M147.643 55.1984C147.866 55.5586 147.754 56.032 147.392 56.2547C147.032 56.4774 146.559 56.3661 146.336 56.0041C146.324 55.9832 143.115 50.8114 139.819 47.7765C139.76 47.7452 139.704 47.7052 139.654 47.6582C139.654 47.6582 139.513 47.5294 139.273 47.2928C138.775 46.8734 138.279 46.5132 137.797 46.2347C137.317 45.9841 136.748 45.7562 136.093 45.6152C135.385 45.4621 133.624 45.9285 131.372 46.5271C127.046 47.6756 121.013 49.2783 115.798 48.055C113.236 47.4546 111.781 46.5045 111.207 45.4969C110.861 44.8913 110.807 44.2683 111.003 43.6697C111.183 43.125 111.572 42.6221 112.138 42.2027C113.523 41.1743 116.128 40.5583 119.281 41.0386C122.814 41.5763 126.094 42.1418 129.052 42.6848C131.725 43.1755 134.139 43.6523 136.227 44.0752C134.924 42.5978 133.401 40.7375 131.939 38.6371C131.416 38.7729 130.932 38.4805 129.903 37.8592C129.174 37.419 128.074 36.7542 126.31 35.8998C125.511 35.5135 124.577 35.1045 123.55 34.6573C118.724 32.5534 111.915 29.5812 107.608 23.8404C105.694 21.2875 102.285 19.6865 98.8516 18.6842C97.6613 19.6691 93.203 23.1982 88.8682 24.5225C84.1175 25.9738 79.9759 25.4152 79.4643 25.3369C79.4051 25.3317 79.346 25.3195 79.2868 25.2986C78.8848 25.1612 78.6708 24.7226 78.8082 24.3206C78.81 24.3137 79.6 21.9453 80.9243 20.4C81.8275 19.3472 82.9359 18.6546 84.73 17.5339C85.5531 17.0206 86.5259 16.4115 87.6692 15.6528C87.8624 15.4509 88.4262 14.9063 89.4564 14.278C89.9854 13.7891 90.3473 13.3523 90.7162 12.9051C91.5306 11.9219 92.3747 10.9021 94.7483 9.34464C96.967 7.88811 99.5704 6.24016 102.793 5.27435C106.035 4.30333 109.867 4.0371 114.485 5.37704C118.933 6.66651 123.849 10.0738 127.805 13.9509C132.033 18.0943 135.195 22.8258 135.566 26.1513C135.844 28.6502 135.618 30.9107 135.19 32.7762C134.665 35.0628 133.793 36.8047 133.145 37.6922C135.923 41.6963 138.963 44.8321 140.171 46.0224C140.562 46.3635 140.771 46.6089 140.773 46.6106C140.788 46.628 140.802 46.6472 140.814 46.6663C144.382 49.9361 147.634 55.1793 147.646 55.2001L147.643 55.1984ZM131.929 44.7904C130.932 44.599 129.881 44.3988 128.772 44.197C125.901 43.6697 122.656 43.1129 119.05 42.563C116.323 42.147 114.151 42.6204 113.05 43.4383C112.742 43.6662 112.54 43.9098 112.462 44.1465C112.401 44.3327 112.423 44.5346 112.54 44.7382C112.917 45.3994 114.045 46.0642 116.144 46.5567C120.99 47.6948 126.808 46.1495 130.977 45.041C131.304 44.954 131.621 44.8704 131.927 44.7904H131.929ZM130.471 36.4044C128.995 34.0134 127.699 31.4067 126.922 28.7581C125.576 24.1588 123.618 20.7515 120.39 18.3048C117.129 15.832 112.538 14.3007 105.946 13.4671C97.4786 12.3987 92.7628 14.0901 90.4918 15.4144C90.4257 15.4753 90.356 15.538 90.2847 15.6023C92.2894 15.7746 95.4809 16.1731 98.7472 17.0798C98.8238 17.0885 98.8986 17.1111 98.97 17.1424C102.772 18.2231 106.644 19.9998 108.833 22.918C112.895 28.3335 119.488 31.21 124.161 33.2478C125.21 33.7054 126.164 34.1213 126.975 34.5146C128.647 35.3255 129.728 35.959 130.471 36.4044ZM128.398 28.33C129.213 31.1126 130.638 33.8568 132.235 36.3366C132.698 35.5605 133.278 34.2118 133.687 32.4316C134.082 30.7123 134.289 28.6276 134.033 26.3184C133.702 23.3444 130.721 18.9626 126.724 15.0455C122.929 11.3267 118.246 8.06736 114.056 6.85097C109.77 5.60848 106.225 5.85211 103.23 6.7483C100.216 7.65146 97.7205 9.23327 95.5888 10.6324C94.3097 11.4711 93.5162 12.1376 92.9298 12.7258C95.855 11.7931 100.134 11.1858 106.14 11.9445C113.006 12.8111 117.832 14.4399 121.317 17.0832C124.836 19.7509 126.957 23.414 128.398 28.3317V28.33ZM96.9983 18.1952C93.0081 17.2555 89.345 17.0537 88.3879 17.0154C87.2603 17.7636 86.331 18.3431 85.5392 18.8373C83.8669 19.8814 82.8333 20.527 82.0885 21.3954C81.4377 22.1558 80.9278 23.1826 80.6145 23.9134C82.0832 24.0266 85.0781 24.0718 88.4193 23.0503C91.7726 22.0253 95.2494 19.5543 96.9983 18.1952Z" fill="#899F87"/>
<path fill-rule="evenodd" clip-rule="evenodd" d="M183.938 153.43C184.049 153.839 183.807 154.261 183.398 154.373C182.989 154.484 182.566 154.242 182.455 153.833C182.448 153.805 180.515 146.648 175.693 141.142C174.462 140.815 167.528 139.272 160.831 143.953C160.633 144.092 160.038 144.511 159.472 144.911C152.827 149.601 152.581 149.775 142.826 145.594C133.594 141.638 128.104 147.565 127.806 147.898C127.77 147.941 127.73 147.979 127.684 148.012L127.681 148.016L127.674 148.021L127.664 148.028L127.636 148.047L127.629 148.051C127.552 148.099 127.469 148.134 127.378 148.152L127.342 148.159H127.335C127.267 148.169 127.197 148.171 127.128 148.162H127.122L127.075 148.153C127.053 148.148 127.028 148.143 127.008 148.138L126.997 148.134L126.981 148.129C126.955 148.12 126.929 148.11 126.905 148.099L126.877 148.086C126.771 148.032 126.682 147.955 126.612 147.865L126.609 147.861L126.604 147.854L126.597 147.844L126.579 147.816L126.576 147.809C126.529 147.732 126.492 147.649 126.475 147.558L126.468 147.522V147.513C126.463 147.473 126.459 147.431 126.459 147.389C126.456 146.967 126.397 135.142 130.968 129.252C134.454 124.762 138.103 124.101 143.471 123.13C145.297 122.799 147.331 122.43 149.675 121.84C157.807 119.792 161.065 121.515 165.624 123.927C166.219 124.242 166.837 124.569 167.475 124.891C172.9 127.637 176.363 138.622 176.803 140.079C181.914 145.898 183.938 153.397 183.944 153.426L183.938 153.43ZM173.831 139.244C172.404 137.958 170.777 136.853 168.932 136.078C162.942 133.562 160.857 133.983 157.69 134.62C155.52 135.057 152.872 135.591 148.34 135.455C142.774 135.288 138.71 135.864 135.806 137.016C133.009 138.125 131.306 139.774 130.366 141.807C129.76 143.119 129.303 144.163 128.956 144.985C131.668 143.223 136.669 141.278 143.428 144.175C152.395 148.019 152.616 147.863 158.588 143.648C158.872 143.448 159.183 143.229 159.954 142.689C165.274 138.97 170.754 138.882 173.832 139.242L173.831 139.244ZM169.529 134.657C171.326 135.412 172.931 136.454 174.353 137.664C172.981 133.992 170.298 128.047 166.776 126.264C166.108 125.926 165.492 125.601 164.902 125.287C160.647 123.037 157.607 121.428 150.044 123.333C147.707 123.921 145.615 124.301 143.739 124.64C138.721 125.548 135.31 126.166 132.181 130.196C129.618 133.498 128.621 138.917 128.234 142.79C128.454 142.296 128.697 141.755 128.972 141.161C130.072 138.777 132.04 136.856 135.242 135.586C138.336 134.359 142.601 133.745 148.386 133.917C152.747 134.047 155.301 133.534 157.393 133.111C160.845 132.417 163.116 131.959 169.532 134.653L169.529 134.657Z" fill="#899F87"/>
<path fill-rule="evenodd" clip-rule="evenodd" d="M184.126 168.354C183.887 168.705 183.407 168.794 183.057 168.556C182.706 168.315 182.617 167.837 182.855 167.487C182.867 167.47 186.745 161.969 188.657 145.159C188.241 144.078 186.16 138.377 185.05 129.549C184.428 124.611 184.171 120.976 184.89 117.483C185.612 113.97 187.303 110.663 190.575 106.419C195.903 99.5034 202.688 97.6501 207.735 96.2736C208.887 95.9587 209.945 95.6698 210.85 95.3566C215.656 93.6878 223.931 93.7417 224.656 93.7504C225.008 93.7312 225.338 93.9575 225.438 94.3107C225.505 94.5509 225.45 94.7962 225.312 94.9807C224.945 95.5288 220.175 102.737 218.374 110.199C217.111 115.433 214.246 117.154 211.403 118.865C209.84 119.804 208.283 120.741 207.092 122.31C205.437 124.494 204.607 126.676 203.699 129.066C202.777 131.493 201.774 134.126 199.784 137.215C196.357 142.531 191.605 144.95 190.155 145.594C188.179 162.606 184.139 168.338 184.127 168.357L184.126 168.354ZM190.519 142.032C190.465 142.63 190.408 143.217 190.35 143.791C192.179 142.85 195.767 140.601 198.487 136.381C200.393 133.423 201.364 130.872 202.258 128.521C203.21 126.019 204.079 123.734 205.862 121.379C207.228 119.576 208.916 118.562 210.611 117.542C213.18 115.999 215.766 114.443 216.878 109.833C218.24 104.188 221.233 98.6995 222.892 95.9378C219.495 97.2081 212.177 100.433 203.969 107.077C192.863 116.066 192.271 122.623 190.549 141.71L190.519 142.032ZM189.031 141.421C190.787 121.967 191.42 115.256 203 105.883C209.852 100.335 216.129 97.1107 220.106 95.4035C217.316 95.5671 213.822 95.9447 211.347 96.8044C210.387 97.1368 209.308 97.4326 208.135 97.7528C203.302 99.0718 196.805 100.847 191.789 107.357C188.671 111.405 187.065 114.521 186.393 117.789C185.718 121.076 185.97 124.579 186.572 129.361C187.239 134.652 188.253 138.778 189.033 141.421H189.031Z" fill="#899F87"/>
<path fill-rule="evenodd" clip-rule="evenodd" d="M43.3744 104.87C43.2665 105.013 42.3721 106.287 43.7677 107.496C44.77 108.364 46.263 109.043 47.8744 109.153C49.1865 109.241 50.5735 108.947 51.8299 108.06C52.5921 107.52 54.1096 105.993 56.0795 104.011C61.8047 98.2471 71.2625 88.7265 78.5208 87.1708C84.9421 85.796 93.4185 85.4619 98.3362 85.3923C93.5577 83.7218 84.7437 81.3917 75.6738 82.836C70.0026 83.7392 64.4932 86.4016 59.5406 89.7724C52.78 94.3734 47.0688 100.283 43.3883 104.856L43.3744 104.872V104.87ZM42.7618 108.659C40.3847 106.598 41.8726 104.324 42.1511 103.944C42.1632 103.927 42.1771 103.908 42.1893 103.892C45.9429 99.2285 51.769 93.1988 58.6723 88.502C63.7902 85.0182 69.5084 82.2617 75.432 81.3186C89.169 79.1312 102.311 85.2949 102.652 85.4567C102.922 85.5785 103.106 85.8518 103.103 86.165C103.097 86.5896 102.749 86.9289 102.326 86.9237C102.286 86.9237 88.278 86.654 78.8392 88.6761C72.0281 90.1361 62.7722 99.453 57.1688 105.095C55.1415 107.134 53.5822 108.706 52.7139 109.32C51.1408 110.432 49.4076 110.801 47.7718 110.689C45.8141 110.557 43.9921 109.725 42.7618 108.66V108.659Z" fill="#899F87"/>
<path fill-rule="evenodd" clip-rule="evenodd" d="M92.8448 107.618C93.2677 107.67 93.567 108.053 93.5165 108.476C93.4643 108.899 93.0814 109.198 92.6586 109.148C92.6255 109.144 80.8514 107.641 76.2295 113.611C74.5711 115.752 73.0677 118.536 71.8113 121.275C69.9893 125.241 68.6928 129.036 68.1916 130.667C70.1807 130.442 75.1732 129.417 82.9797 124.783C93.292 118.663 97.1953 108.868 97.2074 108.84C97.3223 108.56 97.599 108.363 97.9209 108.365L107.856 108.433C107.922 108.427 107.99 108.433 108.059 108.445C108.477 108.527 108.748 108.93 108.667 109.348C108.661 109.374 106.977 118.701 94.672 126.835C87.2067 131.77 78.638 132.839 73.0589 132.839C71.2927 132.839 69.817 132.731 68.7711 132.605C68.1186 132.527 67.5826 132.405 67.198 132.277C66.9491 132.277 66.7038 132.156 66.5542 131.934C66.4654 131.8 66.4219 131.655 66.4219 131.497C66.4219 131.49 66.4219 131.48 66.4254 131.466C66.4288 131.365 66.4532 131.267 66.4932 131.18C66.8204 129.938 68.2665 125.316 70.4138 120.638C71.7155 117.805 73.2782 114.917 75.0132 112.673C80.1798 106 92.8083 107.616 92.8448 107.62V107.618ZM72.4446 131.292C72.6447 131.295 72.8483 131.297 73.0572 131.297C78.4343 131.297 86.6793 130.274 93.8228 125.552C103.322 119.274 106.171 112.388 106.918 109.96L98.4203 109.903C97.4684 112.002 93.1545 120.534 83.7628 126.108C79.0016 128.934 75.2011 130.463 72.4464 131.292H72.4446Z" fill="#899F87"/>
<path fill-rule="evenodd" clip-rule="evenodd" d="M20.6027 47.7939C20.9542 47.5555 21.4327 47.6442 21.6711 47.9957C21.9096 48.3472 21.8208 48.8258 21.4693 49.0642C21.4136 49.1025 1.81562 62.0303 1.54589 104.308C1.41016 125.556 3.0773 137.662 5.47005 144.955C7.80885 152.086 10.8454 154.533 13.5375 156.503C14.8809 157.486 16.1338 158.363 17.3276 159.198C21.4483 162.082 24.8991 164.497 26.079 166.914C26.4653 167.706 26.688 169.293 26.996 171.493C27.9566 178.349 29.7908 191.435 39.4105 201.875C44.29 207.168 49.4914 212.241 54.6719 217.291C63.0822 225.491 71.4368 233.635 78.2705 242.579C79.3129 243.944 80.3866 245.163 81.4829 246.244C86.0648 250.758 91.0817 252.902 95.9316 253.16C100.774 253.417 105.471 251.799 109.413 248.786C110.312 248.099 111.172 247.34 111.981 246.519C115.195 243.256 117.458 239.529 118.455 235.947C119.038 233.854 119.187 231.816 118.838 229.961C118.495 228.141 117.666 226.491 116.29 225.136C114.96 223.825 113.112 222.779 110.692 222.104C104.399 220.35 98.3243 219.602 92.9384 220.011C87.8815 220.394 83.4423 221.801 80.0194 224.361C77.3743 226.338 74.4943 227.048 71.9745 226.824C70.4066 226.684 68.9744 226.182 67.8172 225.395C66.6304 224.589 65.7308 223.488 65.2627 222.176C64.725 220.67 64.7528 218.899 65.5619 216.988C68.5115 210.027 72.4426 207.906 82.6679 202.393C83.3083 202.047 83.9748 201.688 84.6674 201.314C96.2727 195.034 101.159 193.45 101.173 193.445C101.575 193.313 102.01 193.531 102.142 193.933C102.205 194.122 102.189 194.319 102.113 194.489H102.114C102.109 194.502 100.428 198.199 96.1177 206.82C93.6832 211.689 88.9656 216.576 85.266 219.948C87.5891 219.165 90.1263 218.681 92.8253 218.476C98.3852 218.055 104.638 218.822 111.103 220.623C113.789 221.372 115.858 222.553 117.369 224.041C118.98 225.628 119.95 227.556 120.35 229.679C120.743 231.769 120.581 234.042 119.937 236.358C118.871 240.188 116.473 244.152 113.078 247.598C112.213 248.477 111.299 249.282 110.346 250.012C106.119 253.241 101.072 254.976 95.8515 254.698C90.6397 254.421 85.273 252.14 80.4039 247.342C79.2519 246.208 78.1296 244.934 77.0454 243.515C70.2761 234.656 61.965 226.554 53.5982 218.396C48.3951 213.323 43.1693 208.228 38.2759 202.919C28.3325 192.13 26.4548 178.729 25.4699 171.707C25.1828 169.654 24.9739 168.173 24.6903 167.591C23.681 165.524 20.3817 163.215 16.4436 160.458C15.1907 159.581 13.8768 158.661 12.6239 157.745C9.74217 155.636 6.48976 153.019 4.00305 145.434C1.56853 138.01 -0.128137 125.747 0.00759736 104.305C0.282546 61.2054 20.54 47.8356 20.5992 47.7956L20.6027 47.7939ZM79.1023 223.122L79.2659 223.001C80.6824 221.913 90.8381 213.95 94.7483 206.129C97.3777 200.869 99.0343 197.425 99.9184 195.56C97.63 196.492 92.9872 198.558 85.3983 202.663C84.7057 203.037 84.0392 203.397 83.3988 203.742C73.5163 209.07 69.7157 211.12 66.9802 217.578C66.3346 219.102 66.3033 220.491 66.7174 221.65C67.0759 222.652 67.7685 223.495 68.6821 224.118C69.627 224.76 70.8086 225.172 72.1102 225.287C74.2802 225.48 76.7809 224.856 79.1023 223.119V223.122Z" fill="#899F87"/>
<path fill-rule="evenodd" clip-rule="evenodd" d="M71.0369 204.083C71.0926 204.37 70.9813 204.676 70.7272 204.856C70.722 204.859 68.7921 206.225 68.3919 209.39C68.2318 210.664 68.1639 211.736 68.1065 212.65C68.0056 214.242 67.9342 215.38 67.4417 216.551C67.3094 216.865 67.1267 217.152 66.9005 217.402C66.4028 217.957 65.6981 218.33 64.8837 218.46C64.1093 218.584 63.2322 218.488 62.3465 218.116C61.7374 217.86 61.1197 217.472 60.5211 216.936C59.0663 215.629 56.7396 212.175 55.5667 208.477C54.7315 205.841 54.4652 203.048 55.4711 200.731C56.8667 197.517 58.6277 197.147 60.3644 196.783C61.0222 196.645 61.6747 196.508 62.2786 196.13L61.8314 195.377C60.3888 192.946 58.7165 190.128 56.1828 186.998C55.2883 188.237 54.3242 189.143 51.7105 188.989C48.7469 188.813 45.3728 188.528 42.6772 186.538C39.9695 184.542 38.0379 180.9 38.0727 174.079C38.0988 168.942 38.2919 163.645 38.5182 159.099C38.0883 160.084 37.5837 161.088 36.9885 162.099C34.6549 166.06 32.0029 168.296 29.4431 169.518C26.8642 170.748 24.3897 170.946 22.4198 170.839C18.3547 170.618 17.5386 169.636 17.5368 169.634C17.2897 169.359 17.2758 168.957 17.4847 168.669L20.8327 163.152C20.4969 161.595 19.3466 154.684 24.2156 150.198C29.5162 145.317 39.651 146.02 40.1052 146.053H40.1261C40.5177 146.084 40.8187 146.405 40.8343 146.787C40.8396 146.836 40.8448 146.908 40.8483 147.002C40.8935 147.725 40.9649 149.96 40.4063 152.946C40.0687 158.287 39.6493 166.392 39.6092 174.084C39.5762 180.314 41.2468 183.571 43.5874 185.296C45.9383 187.029 49.0567 187.288 51.8027 187.452C53.797 187.57 54.4583 186.791 55.163 185.775C53.2071 183.495 52.0255 181.052 51.5904 178.661C51.2406 176.74 51.3764 174.857 51.9837 173.122C52.5911 171.383 53.6664 169.8 55.1943 168.486C57.0929 166.852 59.6962 165.627 62.9747 165.032C67.3617 164.235 70.7899 164.332 73.2835 165.035C74.7975 165.461 75.9825 166.112 76.8474 166.927C77.7453 167.774 78.2935 168.792 78.4988 169.916C78.6606 170.807 78.6033 171.756 78.3301 172.725C77.6096 175.283 76.5655 177.444 74.3711 179.136C72.2272 180.787 69.0114 181.948 63.9457 182.527C59.6944 183.015 58.1109 184.386 57.1085 185.691C59.858 189.03 61.633 192.024 63.1574 194.592L63.3993 194.999L63.415 194.975C64.654 193.042 65.7555 191.616 68.1447 190.765C70.4122 189.956 73.8213 189.721 79.6822 190.137C91.2335 190.957 101.558 193.41 101.589 193.417C102.004 193.513 102.261 193.927 102.164 194.341C102.103 194.602 101.916 194.799 101.683 194.888C101.142 195.123 94.5294 197.956 86.709 199.143C83.5923 199.616 80.8132 200.843 78.3283 201.939C75.631 203.129 73.2522 204.18 71.0334 204.079L71.0369 204.083ZM66.8692 209.197C67.2538 206.145 68.9 204.412 69.5613 203.829C68.9905 203.651 68.4284 203.378 67.8716 202.99C65.8599 201.586 64.4921 199.729 63.0895 197.467C62.3134 197.945 61.499 198.118 60.6794 198.288C59.329 198.572 57.9577 198.859 56.8805 201.339C56.0453 203.263 56.2976 205.684 57.0354 208.012C58.1248 211.447 60.2391 214.613 61.5495 215.791C62.0106 216.205 62.4822 216.501 62.9416 216.694C63.5559 216.952 64.1423 217.023 64.6418 216.943C65.1012 216.87 65.4892 216.668 65.7555 216.372C65.8634 216.252 65.9539 216.111 66.0183 215.954C66.4116 215.016 66.4777 213.988 66.5682 212.552C66.6256 211.635 66.6935 210.562 66.8658 209.196L66.8692 209.197ZM64.7097 195.808C64.5617 196.038 64.4121 196.245 64.259 196.43C65.6215 198.647 66.9127 200.448 68.7503 201.73C71.1692 203.42 74.124 202.117 77.7105 200.533C80.2843 199.397 83.1625 198.126 86.481 197.622C91.5937 196.846 96.1669 195.354 98.7876 194.385C95.0828 193.621 87.6313 192.246 79.5743 191.674C73.9465 191.274 70.7289 191.481 68.6633 192.218C66.7195 192.913 65.7799 194.138 64.7097 195.808ZM53.1026 178.393C53.4698 180.415 54.4599 182.501 56.094 184.487C57.2756 183.018 59.1567 181.527 63.7717 180.999C68.5363 180.453 71.5086 179.404 73.4315 177.921C75.3039 176.478 76.2105 174.578 76.8491 172.311C77.0597 171.562 77.1067 170.845 76.9884 170.188C76.8439 169.391 76.4471 168.662 75.7946 168.047C75.1072 167.4 74.1345 166.873 72.8694 166.518C70.5811 165.874 67.386 165.792 63.2461 166.546C60.26 167.088 57.9038 168.19 56.2002 169.657C54.8794 170.795 53.9519 172.151 53.435 173.632C52.9164 175.116 52.8016 176.736 53.1026 178.393ZM39.1307 148.996C39.1725 148.406 39.2091 147.919 39.2369 147.553C36.8268 147.475 29.3509 147.562 25.258 151.331C21.2782 154.996 21.9134 160.603 22.2597 162.467C24.8038 162.24 34.0755 161.057 36.6544 155.734C38.1823 152.581 38.847 150.397 39.1307 148.996ZM35.6661 161.321C36.5274 159.86 37.1904 158.414 37.6985 157.034C34.2721 162.759 24.2417 163.852 22.1013 164.022L19.1761 168.843C19.6685 169.003 20.6361 169.201 22.4998 169.304C24.2678 169.399 26.4848 169.224 28.7836 168.127C31.1015 167.021 33.5152 164.974 35.6661 161.323V161.321Z" fill="#899F87"/>
<path fill-rule="evenodd" clip-rule="evenodd" d="M40.837 146.98C40.9415 147.392 40.6927 147.811 40.2802 147.916C39.8678 148.02 39.4484 147.771 39.344 147.359C39.337 147.335 37.4385 139.758 32.4442 133.598C31.4731 133.22 26.2422 131.447 18.709 133.759C15.5958 134.715 12.8358 136.053 10.5614 137.155C8.57236 138.119 6.94005 138.91 5.66798 139.159C3.96086 139.495 2.87326 139.01 2.49912 137.115C1.66731 132.884 3.94874 131.583 8.776 128.826C9.3172 128.516 9.89663 128.186 10.5509 127.805C13.7807 125.92 17.6666 124.829 21.6499 125.314C25.0188 125.723 28.447 127.255 31.5985 130.373C32.2684 131.036 32.8949 131.73 33.4813 132.442C33.4987 132.461 33.5144 132.48 33.5283 132.5C38.8237 138.964 40.8266 146.952 40.8336 146.978L40.837 146.98ZM30.5352 131.482L30.516 131.462C27.636 128.612 24.5194 127.215 21.4706 126.844C17.8423 126.402 14.2889 127.406 11.3219 129.136C10.718 129.487 10.1072 129.837 9.5347 130.164C5.36349 132.547 3.39182 133.671 4.01132 136.82C4.16446 137.598 4.63262 137.795 5.3722 137.649C6.45459 137.436 8.0033 136.685 9.8914 135.769C12.2111 134.645 15.0249 133.281 18.2547 132.291C23.6162 130.645 27.9371 130.965 30.5334 131.482H30.5352Z" fill="#899F87"/>
<path fill-rule="evenodd" clip-rule="evenodd" d="M334.933 347.176C335.105 347.564 334.933 348.019 334.545 348.191C334.158 348.363 333.702 348.191 333.53 347.803C333.5 347.737 323.47 325.05 308.033 311.704C300.171 304.906 295.476 300.256 293.029 295.032C290.598 289.839 290.422 284.189 291.618 275.456C290.276 273.8 282.854 264.556 279.116 258.076C276.927 254.282 276.628 249.402 278.236 244.098C279.753 239.092 282.98 233.694 287.925 228.477C297.554 218.319 314.294 212.116 315.721 211.599C315.789 211.573 315.827 211.56 315.827 211.56C316.227 211.421 316.666 211.632 316.805 212.034C316.83 212.105 316.844 212.178 316.847 212.25C316.847 212.281 317.402 222.922 313.227 230.991C312.143 233.087 311.177 234.602 310.353 235.893C308.169 239.318 307.038 241.091 307.328 248.966C307.721 259.598 294.795 273.814 293.149 275.578C291.983 284.056 292.126 289.489 294.416 294.381C296.744 299.353 301.33 303.881 309.034 310.542C324.73 324.114 334.898 347.11 334.927 347.176H334.933ZM291.872 273.318C292.439 267.076 291.365 261.782 290.387 256.958C288.778 249.027 287.417 242.323 293.595 234.644C299.537 227.255 303.971 223.028 306.949 220.19C308.976 218.257 310.309 216.986 310.922 215.862C311.092 215.551 311.275 215.258 311.466 214.985C305.56 217.58 295.592 222.628 289.042 229.538C284.266 234.578 281.159 239.762 279.708 244.546C278.225 249.436 278.478 253.894 280.449 257.312C283.587 262.75 289.409 270.225 291.874 273.318H291.872ZM291.893 256.657C292.867 261.462 293.936 266.724 293.447 272.952C297.158 268.694 306.112 257.51 305.797 249.02C305.487 240.672 306.707 238.761 309.061 235.069C309.86 233.816 310.798 232.345 311.863 230.287C315.042 224.14 315.345 216.383 315.338 213.483C314.452 213.99 313.165 214.954 312.27 216.595C311.539 217.937 310.139 219.271 308.009 221.302C305.061 224.112 300.674 228.296 294.794 235.606C289.067 242.725 290.363 249.107 291.894 256.657H291.893Z" fill="#899F87"/>
<path fill-rule="evenodd" clip-rule="evenodd" d="M308.183 309.797C308.501 310.077 308.534 310.563 308.256 310.881C307.978 311.2 307.492 311.233 307.172 310.954C307.121 310.909 289.359 295.404 273.061 282.774C266.265 277.508 260.227 274.322 254.904 272.836C253.955 273.185 249.775 275.037 247.609 281.195C246.232 285.107 242.164 287.928 237.104 290.062C232.17 292.141 226.281 293.58 221.082 294.743C210.889 297.022 202.159 296.425 201.712 296.394C201.619 296.391 201.525 296.37 201.437 296.33C201.047 296.159 200.871 295.703 201.042 295.315C201.809 293.572 202.733 291.898 204.701 289.277C206.635 286.701 209.588 283.202 214.429 277.779C216.581 275.371 218.172 273.41 219.458 271.823C224.064 266.143 224.943 265.06 233.912 264.404C244.635 263.62 254.058 270.452 255.224 271.332C260.76 272.862 267.007 276.138 273.999 281.559C290.329 294.215 308.131 309.755 308.183 309.801V309.797ZM252.589 272.286C246.434 271.092 241.304 272.286 237.124 275.183C231.352 279.187 230.63 279.528 226.687 281.392C224.839 282.266 222.275 283.479 218.137 285.568C209.393 289.987 205.227 293.286 203.469 294.927C206.476 295.004 213.202 294.929 220.753 293.241C225.884 292.092 231.69 290.676 236.51 288.643C241.203 286.665 244.953 284.115 246.159 280.686C247.832 275.933 250.659 273.473 252.589 272.282V272.286ZM236.251 273.92C240.365 271.068 245.312 269.74 251.149 270.497C247.451 268.349 241.017 265.426 234.022 265.938C225.717 266.545 224.907 267.544 220.652 272.789C219.362 274.377 217.77 276.342 215.574 278.801C210.764 284.187 207.837 287.655 205.93 290.196C205.463 290.819 205.058 291.384 204.701 291.908C207.172 290.009 211.175 287.364 217.443 284.197C221.612 282.09 224.179 280.877 226.029 280.002C229.882 278.18 230.586 277.846 236.251 273.918V273.92Z" fill="#899F87"/>
<path fill-rule="evenodd" clip-rule="evenodd" d="M275.043 282.366C275.372 282.636 275.421 283.121 275.151 283.45C274.881 283.779 274.396 283.828 274.067 283.558C274.036 283.532 263.053 274.702 251.424 250.893C247.397 242.65 244.254 235.837 241.527 229.927L240.386 227.455C240.374 227.43 240.361 227.406 240.351 227.38C235.915 217.783 232.47 210.545 227.538 202.7C223.369 196.07 220.153 190.457 218.091 185.149C216.009 179.789 215.108 174.753 215.595 169.324C215.672 168.461 215.837 167.653 216.077 166.903C217.282 163.139 220.367 160.727 224.046 159.346C227.632 157.997 231.798 157.632 235.285 157.945C236.832 158.084 238.252 158.355 239.436 158.735L239.472 158.747L239.517 158.761H239.521C245.895 160.8 252.014 162.76 252.517 171.931C254.77 171.128 257.053 170.793 259.235 170.933C263.469 171.207 267.489 173.518 270.587 176.69C273.952 180.139 276.244 184.632 276.542 188.64C276.834 192.599 274.831 197.381 271.328 201.655C270.472 202.699 269.525 203.713 268.5 204.679C269.005 205.17 269.48 205.716 269.929 206.318L269.946 206.343C271.161 207.982 272.179 210.035 273.094 212.489C274.629 216.605 275.273 218.996 275.165 221.098C275.054 223.245 274.192 224.956 272.715 227.733C271.901 229.263 271.499 230.69 271.156 231.899C270.204 235.265 269.649 237.224 263.967 236.357C258.235 235.484 247.08 230.648 242.638 228.652L242.927 229.278C245.629 235.137 248.746 241.891 252.811 250.213C264.291 273.714 275.014 282.335 275.045 282.361L275.043 282.366ZM228.838 201.883C231.683 206.407 234.031 210.718 236.35 215.374C235.334 209.4 234.45 200.12 236.549 191.64C238.185 185.032 241.334 179.953 245.114 176.478C246.955 174.785 248.947 173.472 250.989 172.547C250.679 163.948 244.983 162.125 239.048 160.224L238.999 160.209L238.962 160.198C237.882 159.852 236.578 159.603 235.15 159.476C231.864 159.182 227.947 159.523 224.583 160.787C221.312 162.017 218.578 164.124 217.537 167.375C217.33 168.024 217.188 168.718 217.121 169.458C216.657 174.633 217.523 179.453 219.521 184.596C221.538 189.79 224.714 195.326 228.836 201.883H228.838ZM239.418 221.735C240.128 223.243 240.854 224.804 241.606 226.431C243.643 226.893 253.778 229.047 258.602 227.46C261.938 226.362 262.366 225.747 263.431 224.221C264.101 223.261 264.994 221.978 266.786 220.113C268.652 218.169 269.515 216.076 269.795 214.109C270.2 211.269 269.403 208.688 268.658 207.197C268.246 206.647 267.811 206.153 267.348 205.714C264.663 208.022 261.519 209.985 258.097 211.3C249.062 214.776 241.39 220.264 239.418 221.733V221.735ZM252.544 173.561C252.538 174.073 252.513 174.604 252.475 175.157C251.739 185.454 248.725 192.66 245.366 200.694C244.916 201.771 244.461 202.859 244.125 203.673C241.898 209.082 240.591 214.353 239.895 217.762C243.325 212.573 250.387 203.069 256.742 201.942C261.171 201.157 264.482 201.709 267.103 203.529C267.176 203.579 267.247 203.632 267.319 203.684C268.344 202.727 269.289 201.719 270.139 200.682C273.399 196.706 275.268 192.319 275.003 188.751C274.733 185.099 272.607 180.966 269.482 177.764C266.631 174.844 262.963 172.717 259.136 172.47C257.003 172.333 254.756 172.7 252.544 173.559V173.561ZM250.938 175.047C250.958 174.778 250.971 174.513 250.982 174.254C249.311 175.089 247.679 176.21 246.155 177.611C242.582 180.896 239.598 185.716 238.04 192.007C235.672 201.578 237.224 212.235 238.341 217.67C239.042 214.194 240.384 208.713 242.7 203.087C243.198 201.879 243.572 200.983 243.941 200.101C247.251 192.188 250.218 185.09 250.937 175.046L250.938 175.047ZM257.549 209.868C260.709 208.652 263.624 206.853 266.134 204.733C263.873 203.203 260.955 202.756 257.005 203.457C251.178 204.491 244.465 213.603 241.167 218.613C244.672 216.236 250.728 212.492 257.551 209.868H257.549ZM271.65 213.028C271.58 212.842 271.511 212.66 271.439 212.479C271.443 213.079 271.406 213.697 271.316 214.327C270.996 216.577 270.014 218.969 267.893 221.179C266.177 222.967 265.326 224.187 264.689 225.102C263.412 226.933 262.9 227.667 259.084 228.923C256.065 229.917 251.239 229.579 247.317 229.028C252.537 231.257 259.951 234.193 264.193 234.838C268.537 235.499 268.954 234.024 269.671 231.487C270.037 230.197 270.465 228.678 271.351 227.013C272.729 224.42 273.533 222.834 273.625 221.021C273.721 219.164 273.106 216.932 271.65 213.027V213.028Z" fill="#899F87"/>
<path fill-rule="evenodd" clip-rule="evenodd" d="M239.22 221.384C239.265 221.685 239.129 221.974 238.893 222.134C239.676 222.976 240.17 223.547 240.288 223.686C240.513 223.921 240.57 224.283 240.407 224.584C240.37 224.652 240.323 224.713 240.271 224.765C240.166 224.88 239.731 225.353 239.039 226.093C237.849 227.562 236.037 230.311 234.842 234.519L234.831 234.556C233.825 238.088 232.705 240.942 231.074 243.136C229.397 245.393 227.209 246.933 224.105 247.764C219.584 248.973 215.352 249.156 213.573 249.173C211.226 249.323 208.591 248.19 203.456 245.978L202.937 245.755C193.331 241.622 195.869 232.715 198.3 224.175C198.881 222.134 199.457 220.114 199.838 218.247C200.022 217.345 200.301 216.512 200.661 215.744C200.762 215.53 200.868 215.323 200.981 215.12C198.893 214.35 196.833 213.44 194.85 212.346C192.569 211.087 190.947 209.554 189.865 207.863V207.859C188.412 205.589 187.937 203.053 188.144 200.516C188.347 198.017 189.214 195.518 190.453 193.272C192.118 190.252 194.475 187.673 196.812 186.168L196.852 186.142L196.981 186.06L196.986 186.057C200.555 183.854 206.966 182.959 213.345 184.009C219.721 185.056 226.109 188.039 229.682 193.581C229.692 193.595 229.703 193.611 229.712 193.625C229.734 193.661 229.788 193.747 229.861 193.865C236.744 205.016 239.213 221.334 239.22 221.381V221.384ZM237.549 220.73C236.935 217.227 234.335 204.042 228.554 194.674L228.417 194.458L228.394 194.422C225.091 189.29 219.098 186.514 213.096 185.528C207.07 184.536 201.079 185.34 197.797 187.362L197.668 187.444L197.645 187.458C195.514 188.831 193.347 191.211 191.802 194.015C190.66 196.082 189.865 198.37 189.679 200.638C189.496 202.865 189.905 205.075 191.156 207.035C192.106 208.517 193.547 209.871 195.588 210.999C197.603 212.111 199.707 213.028 201.849 213.799C203.501 211.658 205.915 210.231 208.655 209.419C212.078 208.404 216.023 208.355 219.599 209.086C221.298 209.433 222.92 209.956 224.366 210.637C229.518 213.059 234.556 217.678 237.549 220.728V220.73ZM203.402 214.329C209.127 216.191 215.021 217.082 220.099 217.85C223.744 218.4 226.978 218.889 229.492 219.637C232.663 220.58 235.03 221.414 236.712 222.066C233.845 219.111 228.822 214.43 223.715 212.031C222.378 211.402 220.873 210.917 219.291 210.593C215.947 209.909 212.27 209.953 209.089 210.894C206.832 211.563 204.832 212.687 203.402 214.329ZM219.869 219.373C214.588 218.574 208.438 217.645 202.452 215.638C202.307 215.882 202.173 216.134 202.05 216.395C201.74 217.055 201.5 217.775 201.34 218.555C200.936 220.53 200.36 222.552 199.779 224.597C197.529 232.499 195.181 240.742 203.543 244.341L204.061 244.563C208.433 246.445 210.902 247.508 212.79 247.635C212.896 247.637 213.122 247.642 213.453 247.638C213.535 247.633 213.617 247.626 213.697 247.617C215.625 247.403 217.389 245.938 220.864 243.055V243.051L221.714 242.346C227.399 237.641 230.046 234.197 232.052 231.587C232.967 230.397 233.752 229.375 234.638 228.468C236.028 227.043 237.144 225.87 237.92 225.042C238.108 224.812 238.282 224.61 238.437 224.438C237.079 223.822 234.146 222.62 229.059 221.107C226.663 220.396 223.47 219.912 219.871 219.369L219.869 219.373ZM221.844 244.238C220.269 245.545 219.025 246.579 217.93 247.356C219.643 247.16 221.641 246.829 223.706 246.277C226.449 245.545 228.373 244.194 229.839 242.221C231.34 240.199 232.393 237.5 233.352 234.129L233.361 234.098C233.674 232.998 234.029 231.991 234.405 231.072C234.039 231.526 233.667 232.011 233.269 232.528C231.215 235.201 228.504 238.727 222.697 243.535L221.848 244.24L221.844 244.238Z" fill="#899F87"/>
<path fill-rule="evenodd" clip-rule="evenodd" d="M233.947 233.349C233.683 233.017 233.738 232.533 234.071 232.269C234.403 232.004 234.887 232.06 235.151 232.392C235.16 232.404 238.351 236.511 243.454 235.392C248.291 234.331 247.51 230.414 247.508 230.403C247.432 229.986 247.709 229.585 248.126 229.509C248.544 229.432 248.944 229.709 249.021 230.127C249.024 230.142 250.089 235.514 243.779 236.899C237.734 238.225 233.959 233.365 233.947 233.351V233.349Z" fill="#899F87"/>
</svg>
