<svg width="74" height="75" viewBox="0 0 74 75" fill="none" xmlns="http://www.w3.org/2000/svg">
<path d="M14.6303 20.343L13.9428 24.2446C13.8861 24.5662 14.018 24.8919 14.2833 25.0852C14.5486 25.2786 14.9013 25.3062 15.1939 25.1564L18.8137 23.3043L22.4336 25.1564C22.5588 25.2205 22.6951 25.2521 22.8308 25.2521C23.0122 25.2521 23.1925 25.1958 23.3441 25.0852C23.6094 24.8919 23.7414 24.5662 23.6847 24.2446L22.9971 20.343L25.9128 17.5769C26.1526 17.3495 26.2403 17.0062 26.1389 16.693C26.0374 16.3797 25.7645 16.1514 25.4361 16.1049L21.3931 15.5331L19.588 11.9734C19.4408 11.6832 19.1413 11.5001 18.8137 11.5001C18.4862 11.5001 18.1866 11.6832 18.0395 11.9734L16.2343 15.5331L12.1914 16.1049C11.8629 16.1514 11.59 16.3797 11.4886 16.693C11.3871 17.0062 11.4749 17.3495 11.7146 17.5769L14.6303 20.343ZM16.9274 17.1715C17.2084 17.1318 17.4519 16.9582 17.5793 16.7068L18.8137 14.2726L20.0481 16.7068C20.1755 16.9582 20.419 17.1318 20.7 17.1715L23.4262 17.557L21.4646 19.418C21.2557 19.6161 21.1602 19.9046 21.21 20.187L21.6766 22.8348L19.2111 21.5733C19.0864 21.5095 18.9501 21.4776 18.8137 21.4776C18.6773 21.4776 18.541 21.5095 18.4163 21.5733L15.9508 22.8348L16.4174 20.187C16.4672 19.9046 16.3717 19.6161 16.1628 19.418L14.2012 17.557L16.9274 17.1715Z" fill="#617C5F"/>
<path d="M31.0969 20.343L30.4094 24.2446C30.3526 24.5662 30.4846 24.8919 30.7499 25.0852C31.0151 25.2786 31.368 25.3062 31.6604 25.1564L35.2803 23.3043L38.9001 25.1564C39.0254 25.2205 39.1617 25.2521 39.2974 25.2521C39.4787 25.2521 39.6591 25.1958 39.8107 25.0852C40.076 24.8919 40.2079 24.5662 40.1512 24.2446L39.4637 20.343L42.3794 17.5769C42.6191 17.3495 42.7069 17.0062 42.6054 16.693C42.504 16.3797 42.2311 16.1514 41.9026 16.1049L37.8597 15.5331L36.0545 11.9734C35.9074 11.6832 35.6078 11.5001 35.2803 11.5001C34.9528 11.5001 34.6532 11.6832 34.506 11.9734L32.7009 15.5331L28.6579 16.1049C28.3295 16.1514 28.0566 16.3797 27.9551 16.693C27.8537 17.0062 27.9414 17.3495 28.1812 17.5769L31.0969 20.343ZM33.394 17.1715C33.6749 17.1318 33.9184 16.9582 34.0459 16.7068L35.2803 14.2726L36.5146 16.7068C36.6421 16.9582 36.8856 17.1318 37.1665 17.1715L39.8927 17.557L37.9312 19.4179C37.7223 19.6161 37.6268 19.9046 37.6766 20.187L38.1432 22.8348L35.6776 21.5733C35.553 21.5095 35.4166 21.4776 35.2803 21.4776C35.1439 21.4776 35.0075 21.5095 34.8829 21.5733L32.4174 22.8348L32.884 20.187C32.9338 19.9046 32.8383 19.6161 32.6293 19.4179L30.6678 17.557L33.394 17.1715Z" fill="#617C5F"/>
<path d="M51.6601 55.8738C51.2423 55.6423 50.7143 55.7904 50.4808 56.2049L47.3386 61.7812H33.1137C32.6351 61.7812 32.2471 62.1659 32.2471 62.6407C32.2471 63.1154 32.6351 63.5002 33.1137 63.5002H47.8471C48.161 63.5002 48.4505 63.3318 48.6036 63.0599L51.9938 57.0434C52.2273 56.6291 52.0779 56.1054 51.6601 55.8738Z" fill="#617C5F"/>
<path d="M23.5803 27.4008C19.5183 27.4008 16.2136 30.6781 16.2136 34.7065C16.2136 38.735 19.5183 42.0123 23.5803 42.0123C27.6423 42.0123 30.947 38.735 30.947 34.7065C30.947 30.6781 27.6423 27.4008 23.5803 27.4008ZM23.5803 40.2933C20.4741 40.2933 17.947 37.7871 17.947 34.7065C17.947 31.626 20.4741 29.1198 23.5803 29.1198C26.6865 29.1198 29.2136 31.626 29.2136 34.7065C29.2136 37.7871 26.6865 40.2933 23.5803 40.2933Z" fill="#617C5F"/>
<path d="M28.347 55.7645H17.947C17.4684 55.7645 17.0804 56.1493 17.0804 56.624C17.0804 57.0987 17.4684 57.4835 17.947 57.4835H28.347C29.5417 57.4835 30.5137 58.4475 30.5137 59.6323C30.5137 60.8171 29.5417 61.781 28.347 61.781H15.347C14.1523 61.781 13.1804 60.8171 13.1804 59.6323V47.5992C13.1804 46.4144 14.1523 45.4505 15.347 45.4505H32.6803C33.159 45.4505 33.547 45.0657 33.547 44.5909C33.547 44.1162 33.159 43.7314 32.6803 43.7314H15.347C13.1965 43.7314 11.447 45.4665 11.447 47.5992V59.6323C11.447 61.765 13.1965 63.5 15.347 63.5H28.347C30.4975 63.5 32.247 61.765 32.247 59.6323C32.247 57.4996 30.4975 55.7645 28.347 55.7645Z" fill="#617C5F"/>
<path d="M50.8803 32.5579C54.9423 32.5579 58.247 29.2805 58.247 25.2521C58.247 21.2237 54.9423 17.9464 50.8803 17.9464C46.8184 17.9464 43.5137 21.2237 43.5137 25.2521C43.5137 29.2805 46.8184 32.5579 50.8803 32.5579ZM50.8803 19.6654C53.9866 19.6654 56.5137 22.1716 56.5137 25.2522C56.5137 28.3327 53.9866 30.8389 50.8803 30.8389C47.7741 30.8389 45.247 28.3327 45.247 25.2522C45.247 22.1716 47.7741 19.6654 50.8803 19.6654Z" fill="#617C5F"/>
<path d="M59.547 34.277H41.7804C39.6299 34.277 37.8804 36.0121 37.8804 38.1448V44.5911C37.8804 45.0658 38.2683 45.4506 38.747 45.4506C39.2257 45.4506 39.6137 45.0658 39.6137 44.5911V38.1448C39.6137 36.96 40.5857 35.996 41.7804 35.996H59.547C60.7417 35.996 61.7137 36.96 61.7137 38.1448V51.0374C61.7137 52.2222 60.7417 53.1861 59.547 53.1861H47.847C46.6523 53.1861 45.6803 52.2222 45.6803 51.0374C45.6803 49.8526 46.6523 48.8886 47.847 48.8886H56.0803C56.559 48.8886 56.947 48.5038 56.947 48.0291V42.0126C56.947 41.5379 56.559 41.1531 56.0803 41.1531C55.6017 41.1531 55.2137 41.5379 55.2137 42.0126V47.1696H34.4137C34.1096 47.1696 33.8277 47.3277 33.6709 47.5862L29.7623 54.0325C29.5156 54.4392 29.6482 54.9674 30.0584 55.212C30.1982 55.2953 30.3521 55.335 30.5041 55.335C30.7982 55.335 31.0851 55.1865 31.2477 54.9183L34.9038 48.8886H44.6059C44.1899 49.5036 43.947 50.2428 43.947 51.0374C43.947 53.1701 45.6965 54.9051 47.847 54.9051H57.8137V62.6407C57.8137 63.1154 58.2017 63.5002 58.6803 63.5002C59.159 63.5002 59.547 63.1154 59.547 62.6407V54.9051C61.6975 54.9051 63.447 53.1701 63.447 51.0374V38.1448C63.447 36.0121 61.6975 34.277 59.547 34.277Z" fill="#617C5F"/>
</svg>
