<svg width="75" height="75" viewBox="0 0 75 75" fill="none" xmlns="http://www.w3.org/2000/svg">
<path d="M64.7147 44.7079C63.8873 44.6351 63.0572 44.8142 62.3333 45.2218V26.1946C63.4686 26.1946 64.3889 25.2743 64.3889 24.1391V19.0002C64.3889 17.2974 63.0084 15.9169 61.3056 15.9169H51.7874C53.1795 14.2294 53.473 11.8901 52.5409 9.91103C51.6088 7.93193 49.6184 6.66838 47.4308 6.66693H46.4031C44.56 6.66814 42.8334 7.56904 41.7781 9.0801C40.7228 7.56892 38.9963 6.66814 37.1532 6.66693H36.1254C33.9378 6.66838 31.9474 7.93193 31.0153 9.91103C30.0832 11.8901 30.3766 14.2294 31.7688 15.9169H22.2506C20.5478 15.9169 19.1673 17.2974 19.1673 19.0002V24.1391C19.1673 25.2743 20.0876 26.1946 21.2229 26.1946V52.6875C18.7298 54.3262 16.4189 56.2268 14.3297 58.3567C12.3376 60.3475 7.27058 64.4071 7.21927 64.4472C6.77592 64.8019 6.70414 65.4489 7.05896 65.8923C7.41378 66.3356 8.06068 66.4074 8.50402 66.0526C8.71576 65.883 13.7107 61.8819 15.7827 59.8099C23.8045 51.7861 29.7532 50.8611 33.5303 50.8611C34.9561 50.8528 36.3391 51.3478 37.4358 52.2589C37.974 52.6916 38.6457 52.9242 39.3362 52.9166H49.8051C50.9428 52.8854 51.9119 53.7372 52.0271 54.8693C52.0553 55.432 51.8513 55.9817 51.4626 56.3896C51.0741 56.7977 50.535 57.0282 49.9715 57.0276H38.666C38.0984 57.0276 37.6383 57.4878 37.6383 58.0554C37.6383 58.6229 38.0984 59.0831 38.666 59.0831H49.9715C51.0986 59.0832 52.1763 58.6205 52.9526 57.8033C53.7288 56.9861 54.1354 55.886 54.0774 54.7603C54.0774 54.746 54.0713 54.7326 54.0702 54.7182L63.0118 47.2298C63.4332 46.8768 63.9778 46.7059 64.5254 46.7549C65.0729 46.8039 65.5785 47.0687 65.9307 47.4909C66.6062 48.3129 66.5594 49.5105 65.8217 50.2772L52.9982 63.3299C52.4717 63.8718 51.7573 64.1911 51.0023 64.222H32.4345C30.9905 64.2213 29.5599 64.4983 28.2206 65.038L24.9534 66.3515C24.4265 66.5632 24.1712 67.1618 24.3829 67.6887C24.5947 68.2155 25.1933 68.4708 25.7201 68.2591L28.9873 66.9446C30.0831 66.5037 31.2533 66.2773 32.4345 66.2776H51.0371C52.3333 66.2399 53.5648 65.7027 54.4739 64.7781L67.2953 51.7171C68.4133 50.5769 68.7743 48.8944 68.2226 47.3959C67.6708 45.8974 66.3052 44.851 64.7147 44.7079ZM62.3334 19.0003V24.1392H47.9446V17.9726H61.3056C61.8732 17.9724 62.3334 18.4327 62.3334 19.0003ZM43.8336 50.8611H39.7224V26.1946H43.8335L43.8336 50.8611ZM44.8613 24.1391H37.667V17.9724H45.8892V24.1391H44.8613ZM46.403 8.72251H47.4307C49.4174 8.72251 51.0279 10.3331 51.0279 12.3197C51.0279 14.3064 49.4174 15.917 47.4307 15.917H42.8057V12.3197C42.8057 10.3331 44.4163 8.72251 46.403 8.72251ZM32.5281 12.3197C32.5281 10.3331 34.1386 8.72251 36.1253 8.72251H37.153C39.1397 8.72251 40.7503 10.3331 40.7503 12.3197V15.917H36.1253C34.1386 15.917 32.5281 14.3064 32.5281 12.3197ZM21.2226 19.0003C21.2226 18.4327 21.6828 17.9726 22.2503 17.9726H35.6113V24.1392H21.2226V19.0003ZM33.5301 48.8055C29.9407 48.7971 26.4097 49.7143 23.2781 51.4685V26.1946H37.667V49.9289C36.4118 49.1948 34.9842 48.8071 33.5301 48.8055ZM49.8048 50.8611H45.889V26.1946H60.2779V46.8435L53.3363 52.6556C52.5192 51.5208 51.2032 50.852 49.8048 50.8611Z" fill="#617C5F"/>
<path d="M66.9018 10.951L63.8184 13.0066C63.3462 13.3217 63.2187 13.9599 63.5337 14.4322C63.8488 14.9044 64.487 15.0319 64.9593 14.7169L68.0426 12.6613C68.348 12.4575 68.5217 12.1062 68.498 11.7398C68.4743 11.3733 68.2569 11.0474 67.9276 10.8847C67.5983 10.7218 67.2073 10.7472 66.9018 10.951Z" fill="#617C5F"/>
<path d="M61.3053 12.8332C61.7763 12.8327 62.1867 12.5121 62.3012 12.0551L63.3289 7.94403C63.4466 7.40179 63.1126 6.86413 62.5744 6.72924C62.0362 6.59434 61.4881 6.91099 61.3361 7.44455L60.3084 11.5556C60.2421 11.8201 60.2838 12.1002 60.4241 12.3341C60.5644 12.5678 60.7919 12.7363 61.0565 12.8023C61.1378 12.8231 61.2214 12.8334 61.3053 12.8332Z" fill="#617C5F"/>
<path d="M15.2285 11.2359C15.0772 11.4627 15.0222 11.7403 15.0755 12.0076C15.1289 12.275 15.2863 12.5101 15.5132 12.6613L18.5966 14.7169C19.0688 15.032 19.7071 14.9045 20.0221 14.4322C20.3372 13.96 20.2097 13.3217 19.7374 13.0066L16.6541 10.951C16.4273 10.7998 16.1497 10.7447 15.8823 10.7981C15.6149 10.8517 15.3798 11.0091 15.2285 11.2359Z" fill="#617C5F"/>
<path d="M20.9735 6.69785C20.7089 6.76386 20.4814 6.93236 20.3411 7.16614C20.2008 7.39992 20.1591 7.67995 20.2254 7.94456L21.2531 12.0556C21.3676 12.513 21.7786 12.8337 22.25 12.8337C22.3342 12.8341 22.4181 12.8237 22.4998 12.8029C22.7644 12.7369 22.9919 12.5684 23.1322 12.3346C23.2726 12.1008 23.3142 11.8208 23.248 11.5562L22.2202 7.44508C22.0823 6.89442 21.5242 6.55995 20.9735 6.69785Z" fill="#617C5F"/>
</svg>
