<svg width="74" height="74" viewBox="0 0 74 74" fill="none" xmlns="http://www.w3.org/2000/svg">
<path fill-rule="evenodd" clip-rule="evenodd" d="M33.2572 6.10876L28.1398 9.82684H21.8145C19.0898 9.82684 16.675 11.5812 15.8332 14.1725L13.8784 20.1883L8.76117 23.9064C6.55676 25.5078 5.63446 28.3466 6.47652 30.9378L8.43108 36.9537L6.47652 42.9695C5.63446 45.5607 6.55676 48.3993 8.76117 50.0009L13.8784 53.7188L15.8332 59.7346C16.675 62.3259 19.0898 64.0805 21.8145 64.0805H28.1398L33.2572 67.7984C35.4615 69.4 38.4462 69.4 40.6506 67.7984L45.7678 64.0805H52.0934C54.8179 64.0805 57.2326 62.3259 58.0747 59.7346L60.0292 53.7188L65.1467 50.0009C67.3509 48.3993 68.2732 45.5607 67.4313 42.9695L65.4766 36.9537L67.4313 30.9378C68.2732 28.3466 67.3509 25.5078 65.1467 23.9064L60.0292 20.1883L58.0747 14.1725C57.2326 11.5812 54.8179 9.82684 52.0934 9.82684H45.7678L40.6506 6.10876C38.4462 4.50737 35.4615 4.50737 33.2572 6.10876ZM34.2754 7.51019C35.8726 6.34988 38.0352 6.34988 39.6323 7.51019C42.0562 9.27122 44.9773 11.3937 44.9773 11.3937C45.1253 11.5012 45.3037 11.559 45.4866 11.559H52.0934C54.0675 11.559 55.8171 12.8303 56.4271 14.7077C57.353 17.5574 58.4688 20.9913 58.4688 20.9913C58.5253 21.1653 58.6355 21.3168 58.7835 21.4243C58.7835 21.4243 61.7046 23.5466 64.1286 25.3078C65.7256 26.4681 66.3939 28.5249 65.7838 30.4026C64.858 33.252 63.7423 36.6859 63.7423 36.6859C63.6858 36.8599 63.6858 37.0474 63.7423 37.2212C63.7423 37.2212 64.858 40.6553 65.7838 43.5047C66.3939 45.3824 65.7256 47.4392 64.1286 48.5995C61.7046 50.3606 58.7835 52.4829 58.7835 52.4829C58.6355 52.5903 58.5253 52.7421 58.4688 52.916C58.4688 52.916 57.353 56.35 56.4271 59.1994C55.8171 61.077 54.0675 62.3481 52.0934 62.3481C49.0972 62.3481 45.4866 62.3481 45.4866 62.3481C45.3037 62.3481 45.1253 62.4061 44.9773 62.5136C44.9773 62.5136 42.0562 64.6359 39.6323 66.3969C38.0352 67.5574 35.8726 67.5574 34.2754 66.3969C31.8515 64.6359 28.9303 62.5136 28.9303 62.5136C28.7823 62.4061 28.6042 62.3481 28.4213 62.3481C28.4213 62.3481 24.8106 62.3481 21.8145 62.3481C19.8402 62.3481 18.0906 61.077 17.4805 59.1994C16.5547 56.35 15.4388 52.916 15.4388 52.916C15.3825 52.7421 15.2723 52.5903 15.1243 52.4829C15.1243 52.4829 12.2032 50.3606 9.77929 48.5995C8.18206 47.4392 7.51377 45.3824 8.12385 43.5047C9.04969 40.6553 10.1655 37.2212 10.1655 37.2212C10.222 37.0474 10.222 36.8599 10.1655 36.6859C10.1655 36.6859 9.04969 33.252 8.12385 30.4026C7.51377 28.5249 8.18206 26.4681 9.77929 25.3078C12.2032 23.5466 15.1243 21.4243 15.1243 21.4243C15.2723 21.3168 15.3825 21.1653 15.4388 20.9913C15.4388 20.9913 16.5547 17.5574 17.4805 14.7077C18.0906 12.8303 19.8402 11.559 21.8145 11.559H28.4213C28.6042 11.559 28.7823 11.5012 28.9303 11.3937L34.2754 7.51019Z" fill="#899F87"/>
<path fill-rule="evenodd" clip-rule="evenodd" d="M28.2719 29.0886C29.7045 33.4155 33.9083 36.3335 38.9534 35.0402C42.7414 34.0692 45.237 31.4035 46.849 28.5311C49.1966 24.3478 49.6473 19.7546 49.6473 19.7546C49.6784 19.4384 49.534 19.1306 49.2708 18.9526C49.0077 18.7745 48.6682 18.7547 48.3861 18.9011C45.3688 20.468 42.8295 20.1294 40.3538 19.7831C38.5107 19.5249 36.6968 19.2615 34.7745 19.5744C31.6382 20.0847 29.5723 22.3304 28.6323 24.6673C27.9858 26.2745 27.885 27.9204 28.2717 29.0886H28.2719ZM29.9161 28.5442C29.6332 27.689 29.7662 26.4898 30.2393 25.3137C30.9789 23.4754 32.5853 21.6854 35.0526 21.284C37.2633 20.9242 39.3157 21.4312 41.4626 21.6734C43.4155 21.8937 45.4365 21.922 47.6817 21.1024C47.3713 22.6807 46.7002 25.2566 45.3384 27.6834C43.9409 30.1734 41.8072 32.5204 38.5234 33.3623C34.4536 34.4055 31.0718 32.0344 29.9163 28.5442H29.9161Z" fill="#899F87"/>
<path fill-rule="evenodd" clip-rule="evenodd" d="M21.4974 27.9383C24.3378 29.037 26.9509 29.5554 29.321 29.6779C35.1639 29.9803 39.5434 27.8809 42.244 26.0346C42.6385 25.7648 42.7399 25.2254 42.4701 24.8309C42.2003 24.4361 41.6609 24.3349 41.2664 24.6047C38.7886 26.2986 34.771 28.2253 29.4104 27.948C27.2024 27.8339 24.7688 27.3463 22.1222 26.3227C21.6766 26.1502 21.1746 26.3722 21.002 26.8181C20.8297 27.2639 21.0515 27.7659 21.4974 27.9383Z" fill="#899F87"/>
<path fill-rule="evenodd" clip-rule="evenodd" d="M17.6827 44.4318L20.1824 43.1294V52.4889C20.1824 52.967 20.5705 53.3551 21.0484 53.3551C21.5265 53.3551 21.9146 52.967 21.9146 52.4889V41.7015C21.9146 41.3989 21.7566 41.1181 21.4976 40.9611C21.2388 40.804 20.9168 40.7936 20.6483 40.9335L16.8822 42.8955C16.4583 43.1165 16.2935 43.6399 16.5142 44.0637C16.7352 44.4878 17.2586 44.6526 17.6827 44.4318Z" fill="#899F87"/>
<path fill-rule="evenodd" clip-rule="evenodd" d="M54.5254 41.6383L46.685 51.4818C46.3873 51.8557 46.449 52.4012 46.823 52.699C47.1967 52.9967 47.7422 52.935 48.04 52.561L55.8803 42.7176C56.1782 42.3436 56.1164 41.7984 55.7425 41.5005C55.3685 41.2026 54.8231 41.2646 54.5254 41.6383Z" fill="#899F87"/>
<path fill-rule="evenodd" clip-rule="evenodd" d="M47.949 40.7808C46.8575 40.7808 45.9712 41.6671 45.9712 42.7586C45.9712 43.8501 46.8575 44.7364 47.949 44.7364C49.0405 44.7364 49.9269 43.8501 49.9269 42.7586C49.9269 41.6671 49.0405 40.7808 47.949 40.7808ZM47.949 42.5131C48.0846 42.5131 48.1945 42.6231 48.1945 42.7586C48.1945 42.8941 48.0846 43.0041 47.949 43.0041C47.8135 43.0041 47.7035 42.8941 47.7035 42.7586C47.7035 42.6231 47.8135 42.5131 47.949 42.5131Z" fill="#899F87"/>
<path fill-rule="evenodd" clip-rule="evenodd" d="M54.4288 49.2837C53.3373 49.2837 52.4509 50.1698 52.4509 51.2613C52.4509 52.353 53.3373 53.2392 54.4288 53.2392C55.5203 53.2392 56.4066 52.353 56.4066 51.2613C56.4066 50.1698 55.5203 49.2837 54.4288 49.2837ZM54.4288 51.0158C54.5643 51.0158 54.6743 51.1258 54.6743 51.2613C54.6743 51.3968 54.5643 51.507 54.4288 51.507C54.2932 51.507 54.1833 51.3968 54.1833 51.2613C54.1833 51.1258 54.2932 51.0158 54.4288 51.0158Z" fill="#899F87"/>
<path fill-rule="evenodd" clip-rule="evenodd" d="M32.4302 49.3193V44.8714C32.4302 42.6424 30.6232 40.8354 28.3943 40.8354C28.3943 40.8354 28.3943 40.8354 28.3941 40.8354C26.1654 40.8354 24.3584 42.6424 24.3584 44.8714V49.3193C24.3584 51.5482 26.1654 53.3552 28.3941 53.3552H28.3943C30.6232 53.3552 32.4302 51.5482 32.4302 49.3193ZM30.6979 44.8714V49.3193C30.6979 50.5916 29.6667 51.623 28.3943 51.623H28.3941C27.122 51.623 26.0905 50.5916 26.0905 49.3195C26.0905 49.3193 26.0905 44.8714 26.0905 44.8714C26.0905 43.599 27.122 42.5678 28.3941 42.5678H28.3943C29.6667 42.5678 30.6979 43.599 30.6979 44.8714Z" fill="#899F87"/>
<path fill-rule="evenodd" clip-rule="evenodd" d="M42.9454 49.3193V44.8714C42.9454 42.6424 41.1386 40.8354 38.9097 40.8354H38.9094C36.6805 40.8354 34.8737 42.6424 34.8735 44.8714V49.3193C34.8737 51.5482 36.6805 53.3552 38.9094 53.3552H38.9097C41.1386 53.3552 42.9454 51.5482 42.9454 49.3193ZM41.2132 44.8714V49.3193C41.2132 50.5916 40.1818 51.623 38.9097 51.623H38.9094C37.6373 51.623 36.6059 50.5916 36.6059 49.3195C36.6059 49.3193 36.6059 44.8714 36.6059 44.8714C36.6059 43.599 37.6373 42.5678 38.9094 42.5678H38.9097C40.1818 42.5678 41.2132 43.599 41.2132 44.8714Z" fill="#899F87"/>
</svg>
